<svg version="1.1" id="Layer_1" xmlns="http://www.w3.org/2000/svg" xmlns:xlink="http://www.w3.org/1999/xlink" x="0px" y="0px"
	 width="100%" viewBox="0 0 1024 1024" enable-background="new 0 0 1024 1024" xml:space="preserve">
<path fill="#000000" opacity="1.000000" stroke="none" 
	d="
M1.000001,543.000000 
	C1.000000,520.979126 1.000000,498.958221 1.032651,476.071533 
	C1.308233,474.074188 1.682636,472.953156 1.774718,471.809418 
	C3.686221,448.066711 7.116520,424.547150 12.493629,401.342316 
	C31.891638,317.630585 69.998024,243.444366 128.117508,180.202225 
	C227.096619,72.499084 350.705261,17.311745 496.391479,10.830639 
	C527.382751,9.451937 558.322205,11.472447 589.013550,15.961533 
	C622.686707,20.886755 655.656311,28.905079 687.746521,40.354790 
	C779.426880,73.066101 856.244873,126.894981 917.218750,202.845535 
	C972.863770,272.158325 1007.381042,350.890656 1020.419617,438.895355 
	C1022.293823,451.545441 1023.489990,464.295959 1025.000000,477.000000 
	C1025.000000,498.687561 1025.000000,520.375122 1024.994629,542.931580 
	C1023.703247,555.021851 1022.683960,566.281372 1021.083069,577.457642 
	C1015.420166,616.991943 1005.503052,655.430115 990.364563,692.425903 
	C953.644348,782.163513 895.824585,855.383484 817.119202,911.907959 
	C730.015015,974.464294 632.394958,1006.037231 525.432373,1009.195740 
	C500.270477,1009.938782 475.188507,1008.431152 450.150879,1005.528198 
	C411.264740,1001.019592 373.401703,992.233765 336.636749,978.959656 
	C237.625595,943.211304 156.522995,883.169861 94.349525,798.158081 
	C46.769451,733.100342 17.278984,660.417175 5.547810,580.628357 
	C3.710613,568.132812 2.500222,555.545105 1.000001,543.000000 
M674.259644,747.743530 
	C665.431152,757.281250 656.763245,766.974304 647.730164,776.314209 
	C638.185181,786.183289 628.366516,795.750854 613.473328,796.958679 
	C605.276978,797.623413 597.137024,797.370911 589.071655,795.997437 
	C561.325500,791.272583 534.045471,784.400452 506.786316,777.521851 
	C465.800385,767.179443 424.751099,757.140930 383.324646,748.698120 
	C342.301819,740.337585 301.046326,734.116577 258.999969,735.368835 
	C247.644958,735.706970 236.429642,737.299500 225.556046,740.647217 
	C204.519791,747.123840 184.350006,755.932861 163.812943,763.759033 
	C150.323441,768.899597 136.852386,774.510376 121.842545,773.463074 
	C109.999458,772.636719 103.785202,764.826172 106.065895,753.115479 
	C107.353447,746.504211 109.927414,740.402466 113.582718,734.732422 
	C123.333710,719.606995 132.952911,704.395935 142.783020,689.322327 
	C153.782547,672.455383 166.153671,656.769958 183.665573,646.113892 
	C200.594940,635.812378 219.530563,631.166565 238.769470,627.685242 
	C261.778900,623.521667 285.102325,622.876648 308.390564,622.039673 
	C312.104767,621.906189 314.534302,620.666382 316.583252,617.523865 
	C325.136841,604.404968 333.830322,591.375610 342.601593,578.400635 
	C409.067719,480.080078 477.318085,383.056488 552.634399,291.215088 
	C588.692627,247.245407 626.099731,204.494019 668.441711,166.334427 
	C669.394226,165.475983 670.665100,164.779663 670.730713,163.099487 
	C669.508545,160.877380 667.041748,160.549179 664.937439,159.739914 
	C621.923523,143.197571 577.456787,133.463928 531.456970,130.019928 
	C498.413574,127.545952 465.537872,128.548492 432.774811,132.622894 
	C399.315948,136.783813 366.662384,144.696182 334.988861,156.419876 
	C238.889313,191.990295 161.654358,251.466339 106.796890,338.466187 
	C55.938213,419.124207 36.470650,507.377960 46.535194,602.090759 
	C50.823082,642.442139 61.716648,681.114014 78.165680,718.210266 
	C112.605850,795.880798 165.831223,857.722534 236.372711,904.655518 
	C306.903015,951.581055 384.885864,976.705688 469.305634,981.425537 
	C500.907410,983.192444 532.588806,981.977661 563.991028,977.434998 
	C605.887512,971.374329 646.365234,960.071472 685.044128,942.784607 
	C776.633972,901.850098 848.305969,838.795593 897.100647,750.640076 
	C923.977051,702.083496 940.235657,650.086975 945.438477,594.834534 
	C948.095581,566.617798 947.790649,538.329041 944.770874,510.073364 
	C941.355957,478.120270 934.146729,447.077393 923.036499,416.979126 
	C896.157043,344.161499 852.112915,283.507599 792.503357,234.018936 
	C788.983337,231.096603 785.724548,227.684204 781.489197,225.889542 
	C779.231934,227.110153 778.920593,229.224258 778.170593,231.012238 
	C767.016357,257.604401 754.525879,283.564148 741.392883,309.227722 
	C727.728760,335.929230 713.379150,362.259979 698.545776,388.322510 
	C696.064453,392.682129 696.483276,395.532776 700.226013,398.557098 
	C702.675476,400.536407 704.615784,403.138733 707.027527,405.173462 
	C710.218445,407.865479 710.545166,410.212921 707.574890,413.462555 
	C702.632874,418.869385 698.132690,424.677002 693.336304,430.220551 
	C675.202515,451.178986 656.236938,471.288300 633.493164,487.410614 
	C622.885559,494.930023 612.194275,502.388458 599.296265,505.623474 
	C589.494080,508.081970 583.407532,504.021484 581.799561,494.012726 
	C580.492310,485.875732 580.943176,477.739075 582.261047,469.670410 
	C586.250854,445.242737 595.793701,422.725769 606.355347,400.582214 
	C624.195984,363.177490 647.372192,328.887634 668.882263,293.625824 
	C681.898193,272.288696 694.978699,250.988815 706.122498,228.580444 
	C707.681946,225.444687 709.228516,222.278412 709.744080,218.776184 
	C710.822449,211.450027 705.982056,207.597107 699.075256,210.268051 
	C694.994019,211.846344 691.470764,214.388519 688.000854,216.992477 
	C678.908142,223.815872 670.845154,231.785263 662.830505,239.793091 
	C625.980042,276.612000 592.989990,316.782501 560.877869,357.693359 
	C521.366028,408.031586 483.833618,459.859192 445.901215,511.380981 
	C420.513855,545.863403 395.507782,580.628357 371.971466,616.419250 
	C370.821869,618.167358 369.103699,619.724060 369.210144,622.017334 
	C369.960083,623.278687 371.109589,623.463135 372.281464,623.599304 
	C381.038513,624.617004 389.793121,625.656677 398.553284,626.646912 
	C425.525818,629.696106 452.293915,634.001526 478.687866,640.359131 
	C524.326477,651.352234 569.448608,664.297180 614.733276,676.630676 
	C642.833374,684.283936 671.063538,691.424500 699.842529,696.209412 
	C705.310547,697.118469 711.033020,697.038757 717.481323,699.429138 
	C702.847717,715.794922 688.794617,731.511475 674.259644,747.743530 
M771.196228,925.647705 
	C833.775208,888.583252 886.102539,840.415710 927.402527,780.517700 
	C978.022522,707.102783 1006.465210,625.858704 1011.457092,536.740723 
	C1013.228638,505.113464 1011.967346,473.464142 1007.489258,442.037781 
	C1001.871094,402.610077 991.143860,364.598083 975.787415,327.846741 
	C952.190430,271.373901 919.070557,221.197693 876.539307,177.241592 
	C826.437927,125.461731 767.610046,86.716896 700.832336,59.834934 
	C652.713989,40.464462 602.715942,29.211262 551.079651,25.508114 
	C523.659363,23.541639 496.188904,23.722750 468.715881,26.142849 
	C446.458862,28.103466 424.381653,31.044550 402.619293,35.930801 
	C329.537964,52.339577 263.086792,83.127625 203.707840,128.871933 
	C145.245789,173.909882 98.964836,229.178909 65.439560,294.977966 
	C35.171402,354.384369 17.873236,417.393768 14.529936,484.009766 
	C12.537672,523.706055 14.892270,563.230164 22.643585,602.300598 
	C32.512672,652.045654 50.361252,698.860718 75.118111,743.054443 
	C80.162041,752.058411 85.901917,760.672485 91.320961,769.466309 
	C88.931671,763.154419 85.766335,757.324280 82.679222,751.453064 
	C52.512779,694.080444 36.181862,632.975403 33.922920,568.223389 
	C32.681278,532.632080 36.191238,497.390411 44.290726,462.690399 
	C66.262741,368.557404 115.361900,291.028503 188.806946,228.776108 
	C240.671646,184.815308 299.851227,154.399185 365.284271,136.101761 
	C395.490448,127.655029 426.285370,122.232834 457.522675,119.876183 
	C479.935455,118.185287 502.415405,118.098595 524.923218,119.442413 
	C548.398865,120.843994 571.610352,123.838463 594.613708,128.533615 
	C622.406921,134.206421 649.500732,142.302200 675.778687,153.001785 
	C679.844360,154.657196 682.780212,154.318619 686.156921,151.411072 
	C691.703125,146.635559 697.556946,142.176254 703.554688,137.974274 
	C719.015808,127.142433 734.836304,116.998795 753.840088,113.295883 
	C782.324951,107.745560 802.783081,127.027206 799.776428,155.809906 
	C797.940002,173.388794 793.160645,190.061157 787.426453,206.588440 
	C784.743835,214.320679 784.725708,214.244980 791.075806,219.388290 
	C886.283813,296.502686 943.125061,394.743134 955.495239,517.574829 
	C958.548157,547.888977 957.892517,578.118469 954.041138,608.248962 
	C949.120239,646.746826 939.295959,684.022400 923.574768,719.568726 
	C874.110535,831.409729 791.219543,908.986328 679.281128,956.245789 
	C633.247192,975.680969 584.986572,986.473328 535.154297,990.598999 
	C507.332581,992.902405 479.586151,992.704163 451.818573,990.468323 
	C442.199890,989.693787 432.620728,988.428284 423.023529,987.387085 
	C546.134338,1008.131409 662.231384,989.005493 771.196228,925.647705 
z"/>
<path fill="#000000" opacity="1.000000" stroke="none" 
	d="
M751.326416,625.276306 
	C747.448792,625.684082 746.329468,623.370605 745.281006,620.742188 
	C741.522278,611.319275 737.992554,601.822693 733.346252,592.744751 
	C728.533691,583.341919 721.286316,579.121338 710.859375,579.398560 
	C693.388977,579.863098 696.851868,576.843445 693.226135,593.445190 
	C691.275085,602.378784 689.157715,611.281311 687.469238,620.264404 
	C686.783264,623.913879 685.240417,625.283203 681.533508,625.325378 
	C670.874023,625.446472 670.994629,625.597839 673.173584,615.391113 
	C679.418701,586.138245 685.622498,556.876099 691.666870,527.581360 
	C692.538086,523.359009 693.986877,521.386719 698.765503,521.484070 
	C714.746887,521.809631 730.740234,521.496582 746.724976,521.717773 
	C759.863159,521.899536 768.859253,527.870300 770.768188,538.598083 
	C773.793762,555.601257 769.376648,569.146301 750.200317,576.098511 
	C746.968567,577.270142 743.399475,577.492310 739.738464,579.699280 
	C751.888733,592.372192 757.354187,608.176758 763.392273,624.057129 
	C759.320740,626.096863 755.460693,624.924988 751.326416,625.276306 
M703.532593,543.914734 
	C702.325378,549.766235 701.293579,555.661438 699.851196,561.454407 
	C698.833984,565.539734 700.317017,567.074585 704.238708,567.026306 
	C714.872070,566.895508 725.538086,567.260010 736.129395,566.531006 
	C745.021118,565.918884 752.526123,562.063477 755.898804,552.972961 
	C759.844360,542.338135 754.696167,534.568542 743.439636,534.319153 
	C732.475769,534.076294 721.503174,534.250732 710.537354,534.065247 
	C707.073120,534.006653 705.254700,535.382080 704.741028,538.744141 
	C704.516174,540.215881 704.117798,541.661194 703.532593,543.914734 
z"/>
<path fill="#000000" opacity="1.000000" stroke="none" 
	d="
M868.255249,581.085754 
	C865.491638,594.193359 862.675049,606.860291 860.147278,619.584717 
	C859.335571,623.670654 857.702820,625.474548 853.226929,625.375793 
	C843.902710,625.169983 843.942078,625.398315 839.832153,615.639893 
	C829.756531,591.716858 818.591553,568.262634 808.933350,543.299438 
	C806.966064,546.447083 807.115234,549.510437 806.530334,552.261963 
	C801.687683,575.039246 796.914551,597.832092 792.321350,620.660706 
	C791.480652,624.839172 789.087402,625.348755 785.543823,625.324097 
	C776.116943,625.258423 776.194946,625.378357 778.116882,616.367615 
	C784.395142,586.932739 790.710083,557.504883 796.754028,528.021667 
	C797.779297,523.020325 799.776917,521.463928 804.985168,521.354065 
	C811.027954,521.226685 814.012573,523.002502 816.457703,528.717712 
	C826.997437,553.354126 839.415466,577.191101 847.724365,602.774963 
	C847.814697,603.053040 848.137512,603.255676 848.634583,603.807312 
	C850.956848,592.721252 853.226685,581.885132 855.496826,571.049011 
	C858.531372,556.564209 861.707092,542.106628 864.518188,527.578552 
	C865.404419,522.998474 867.238220,520.760742 872.109680,521.569519 
	C874.531067,521.971558 877.090515,521.147644 880.513672,522.582275 
	C876.468323,541.843445 872.391296,561.255432 868.255249,581.085754 
z"/>
<path fill="#000000" opacity="1.000000" stroke="none" 
	d="
M516.015564,578.166748 
	C499.762207,578.372742 503.164978,576.182739 499.502563,591.274292 
	C498.287262,596.282043 497.588440,601.420593 496.254791,606.392456 
	C495.056427,610.859924 496.838104,612.027588 500.942230,612.003662 
	C517.439453,611.907288 533.937561,611.955261 550.435303,611.956238 
	C552.268188,611.956299 554.100952,612.003723 555.933899,612.016296 
	C559.053894,612.037659 560.362976,613.044556 559.642944,616.617554 
	C557.901611,625.259399 558.083252,625.294678 549.229187,625.294678 
	C527.398743,625.294739 505.568329,625.305237 483.737915,625.291199 
	C477.400604,625.287109 477.052521,624.869385 478.348175,618.722717 
	C484.830994,587.967712 491.336761,557.217529 497.829681,526.464661 
	C498.442566,523.561890 499.148499,521.407166 503.140717,521.446045 
	C525.635559,521.665100 548.133484,521.563049 570.630371,521.580688 
	C571.943359,521.581726 573.305420,521.381836 574.698303,522.315247 
	C575.404419,525.802063 573.849854,529.063538 572.969910,532.337097 
	C572.218811,535.131409 569.447021,534.339294 567.404358,534.346802 
	C551.073364,534.406555 534.738831,534.576782 518.412964,534.283997 
	C513.195068,534.190430 510.889252,535.943054 510.159576,541.080627 
	C509.343109,546.829407 507.771576,552.469055 506.579529,558.166809 
	C505.244598,564.547424 505.398834,564.738159 511.780151,564.744263 
	C526.778137,564.758484 541.777771,564.639465 556.772522,564.859680 
	C559.249023,564.895996 563.498474,562.872498 563.871399,567.712158 
	C564.416504,574.785889 561.710815,578.109741 556.006531,578.133606 
	C542.841797,578.188538 529.676758,578.160889 516.015564,578.166748 
z"/>
<path fill="#000000" opacity="1.000000" stroke="none" 
	d="
M587.049377,585.116394 
	C598.193359,565.745239 609.269409,546.754517 620.026123,527.584473 
	C622.510925,523.156311 625.293823,521.183594 630.572998,521.407288 
	C640.884827,521.844177 641.143494,521.477112 642.879883,531.567444 
	C647.981750,561.213928 652.842529,590.901794 657.884460,620.558716 
	C658.428528,623.759338 657.649902,625.120544 654.227783,625.326172 
	C643.926636,625.945435 643.890259,626.039124 642.069153,615.865723 
	C641.190125,610.955017 640.269470,606.041870 639.676514,601.092896 
	C639.185059,596.991089 637.171021,595.346558 633.080750,595.400024 
	C622.921143,595.532959 612.757385,595.537048 602.598145,595.389771 
	C599.156921,595.339966 597.032166,596.664490 595.422424,599.642822 
	C591.701782,606.526611 587.561401,613.189941 584.007080,620.154907 
	C581.984619,624.118286 579.372131,625.929932 574.937866,625.324951 
	C572.010681,624.925598 568.969177,625.817505 564.983521,624.367126 
	C571.596375,610.831848 579.753601,598.408630 587.049377,585.116394 
M614.495422,565.927002 
	C611.709839,571.484192 607.825317,576.510742 605.531494,583.499512 
	C615.594666,583.499512 624.827942,583.612000 634.054932,583.419495 
	C636.330933,583.372009 636.100098,581.197998 635.851196,579.501770 
	C634.621521,571.119812 633.337219,562.745789 632.151672,554.357666 
	C631.407837,549.094849 630.804565,543.812195 630.029419,537.677795 
	C624.627930,547.520142 619.750671,556.406982 614.495422,565.927002 
z"/>
</svg>